<svg width="340" height="140" viewBox="0 0 340 140" fill="none" xmlns="http://www.w3.org/2000/svg">
<g opacity="0.8">
<rect width="340" height="140" transform="matrix(-1 0 0 -1 340 140)" fill="#FFAB00"/>
<path d="M170 70V128L228 70H170Z" fill="#B76E00"/>
<rect x="170" y="70" width="58" height="58" transform="rotate(90 170 70)" fill="#FFAB00"/>
<path d="M112 70V77.25L119.25 70H112Z" fill="#212B36"/>
<path d="M119.25 70V77.25L126.5 70H119.25Z" fill="#212B36"/>
<path d="M126.5 70V77.25L133.75 70H126.5Z" fill="#212B36"/>
<path d="M133.75 70V77.25L141 70H133.75Z" fill="#212B36"/>
<path d="M141 70V77.25L148.25 70H141Z" fill="#212B36"/>
<path d="M148.25 70V77.25L155.5 70H148.25Z" fill="#212B36"/>
<path d="M155.5 70V77.25L162.75 70H155.5Z" fill="#212B36"/>
<path d="M162.75 70V77.25L170 70H162.75Z" fill="#212B36"/>
<path d="M112 77.25V84.5L119.25 77.25H112Z" fill="#212B36"/>
<path d="M119.25 77.25V84.5L126.5 77.25H119.25Z" fill="#212B36"/>
<path d="M126.5 77.25V84.5L133.75 77.25H126.5Z" fill="#212B36"/>
<path d="M133.75 77.25V84.5L141 77.25H133.75Z" fill="#212B36"/>
<path d="M141 77.25V84.5L148.25 77.25H141Z" fill="#212B36"/>
<path d="M148.25 77.25V84.5L155.5 77.25H148.25Z" fill="#212B36"/>
<path d="M155.5 77.25V84.5L162.75 77.25H155.5Z" fill="#212B36"/>
<path d="M112 84.5V91.75L119.25 84.5H112Z" fill="#212B36"/>
<path d="M119.25 84.5V91.75L126.5 84.5H119.25Z" fill="#212B36"/>
<path d="M126.5 84.5V91.75L133.75 84.5H126.5Z" fill="#212B36"/>
<path d="M133.75 84.5V91.75L141 84.5H133.75Z" fill="#212B36"/>
<path d="M141 84.5V91.75L148.25 84.5H141Z" fill="#212B36"/>
<path d="M148.25 84.5V91.75L155.5 84.5H148.25Z" fill="#212B36"/>
<path d="M112 91.75V99L119.25 91.75H112Z" fill="#212B36"/>
<path d="M119.25 91.75V99L126.5 91.75H119.25Z" fill="#212B36"/>
<path d="M126.5 91.75V99L133.75 91.75H126.5Z" fill="#212B36"/>
<path d="M133.75 91.75V99L141 91.75H133.75Z" fill="#212B36"/>
<path d="M141 91.75V99L148.25 91.75H141Z" fill="#212B36"/>
<path d="M112 99V106.25L119.25 99H112Z" fill="#212B36"/>
<path d="M119.25 99V106.25L126.5 99H119.25Z" fill="#212B36"/>
<path d="M126.5 99V106.25L133.75 99H126.5Z" fill="#212B36"/>
<path d="M133.75 99V106.25L141 99H133.75Z" fill="#212B36"/>
<path d="M112 106.25V113.5L119.25 106.25H112Z" fill="#212B36"/>
<path d="M119.25 106.25V113.5L126.5 106.25H119.25Z" fill="#212B36"/>
<path d="M126.5 106.25V113.5L133.75 106.25H126.5Z" fill="#212B36"/>
<path d="M112 113.5V120.75L119.25 113.5H112Z" fill="#212B36"/>
<path d="M119.25 113.5V120.75L126.5 113.5H119.25Z" fill="#212B36"/>
<path d="M112 120.75V128L119.25 120.75H112Z" fill="#212B36"/>
<rect x="228" y="12" width="58" height="58" transform="rotate(90 228 12)" fill="#FFAB00"/>
<path d="M228 70C228 62.3833 226.5 54.8412 223.585 47.8044C220.67 40.7675 216.398 34.3736 211.012 28.9878C205.626 23.602 199.233 19.3298 192.196 16.415C185.159 13.5002 177.617 12 170 12L170 70H228Z" fill="#FFF5CC"/>
<rect width="58" height="58" transform="matrix(0 1 1 0 112 12)" fill="#B76E00"/>
<path d="M170 12V70L112 12L170 12Z" fill="#B76E00"/>
</g>
</svg>
