<svg width="340" height="140" viewBox="0 0 340 140" fill="none" xmlns="http://www.w3.org/2000/svg">
<g opacity="0.8">
<rect width="340" height="140" fill="#00AED6"/>
<rect x="112" y="70" width="58" height="58" transform="rotate(-90 112 70)" fill="#00AED6"/>
<rect x="112" y="70" width="29" height="58" transform="rotate(-90 112 70)" fill="#212B36"/>
<path d="M170 41C153.984 41 141 28.0163 141 12H170V41Z" fill="#0484B4"/>
<rect x="228" y="12" width="58" height="58" transform="rotate(90 228 12)" fill="#00AED6"/>
<path d="M228 70C228 62.3833 226.5 54.8412 223.585 47.8044C220.67 40.7675 216.398 34.3736 211.012 28.9878C205.626 23.602 199.233 19.3298 192.196 16.415C185.159 13.5002 177.617 12 170 12L170 70H228Z" fill="#E1F1F8"/>
<path d="M199 70C199 66.1917 198.25 62.4206 196.793 58.9022C195.335 55.3837 193.199 52.1868 190.506 49.4939C187.813 46.801 184.616 44.6649 181.098 43.2075C177.579 41.7501 173.808 41 170 41L170 70H199Z" fill="#E1F1F8"/>
<rect x="112" y="128" width="58" height="58" transform="rotate(-90 112 128)" fill="#00AED6"/>
<path d="M141 99C157.016 99 170 86.0163 170 70H112C112 86.0163 124.984 99 141 99Z" fill="#0484B4"/>
<rect width="58" height="58" transform="matrix(0 -1 -1 0 228 128)" fill="#00AED6"/>
<path d="M170 128V120.75L177.25 128H170Z" fill="#212B36"/>
<path d="M177.25 128V120.75L184.5 128H177.25Z" fill="#212B36"/>
<path d="M184.5 128V120.75L191.75 128H184.5Z" fill="#212B36"/>
<path d="M191.75 128V120.75L199 128H191.75Z" fill="#212B36"/>
<path d="M199 128V120.75L206.25 128H199Z" fill="#212B36"/>
<path d="M206.25 128V120.75L213.5 128H206.25Z" fill="#212B36"/>
<path d="M213.5 128V120.75L220.75 128H213.5Z" fill="#212B36"/>
<path d="M220.75 128V120.75L228 128H220.75Z" fill="#212B36"/>
<path d="M170 120.75V113.5L177.25 120.75H170Z" fill="#212B36"/>
<path d="M177.25 120.75V113.5L184.5 120.75H177.25Z" fill="#212B36"/>
<path d="M184.5 120.75V113.5L191.75 120.75H184.5Z" fill="#212B36"/>
<path d="M191.75 120.75V113.5L199 120.75H191.75Z" fill="#212B36"/>
<path d="M199 120.75V113.5L206.25 120.75H199Z" fill="#212B36"/>
<path d="M206.25 120.75V113.5L213.5 120.75H206.25Z" fill="#212B36"/>
<path d="M213.5 120.75V113.5L220.75 120.75H213.5Z" fill="#212B36"/>
<path d="M220.75 120.75V113.5L228 120.75H220.75Z" fill="#212B36"/>
<path d="M170 113.5V106.25L177.25 113.5H170Z" fill="#212B36"/>
<path d="M177.25 113.5V106.25L184.5 113.5H177.25Z" fill="#212B36"/>
<path d="M184.5 113.5V106.25L191.75 113.5H184.5Z" fill="#212B36"/>
<path d="M191.75 113.5V106.25L199 113.5H191.75Z" fill="#212B36"/>
<path d="M199 113.5V106.25L206.25 113.5H199Z" fill="#212B36"/>
<path d="M206.25 113.5V106.25L213.5 113.5H206.25Z" fill="#212B36"/>
<path d="M213.5 113.5V106.25L220.75 113.5H213.5Z" fill="#212B36"/>
<path d="M220.75 113.5V106.25L228 113.5H220.75Z" fill="#212B36"/>
<path d="M170 106.25V99L177.25 106.25H170Z" fill="#212B36"/>
<path d="M177.25 106.25V99L184.5 106.25H177.25Z" fill="#212B36"/>
<path d="M184.5 106.25V99L191.75 106.25H184.5Z" fill="#212B36"/>
<path d="M191.75 106.25V99L199 106.25H191.75Z" fill="#212B36"/>
<path d="M199 106.25V99L206.25 106.25H199Z" fill="#212B36"/>
<path d="M206.25 106.25V99L213.5 106.25H206.25Z" fill="#212B36"/>
<path d="M213.5 106.25V99L220.75 106.25H213.5Z" fill="#212B36"/>
<path d="M220.75 106.25V99L228 106.25H220.75Z" fill="#212B36"/>
<path d="M170 99V91.75L177.25 99H170Z" fill="#212B36"/>
<path d="M177.25 99V91.75L184.5 99H177.25Z" fill="#212B36"/>
<path d="M184.5 99V91.75L191.75 99H184.5Z" fill="#212B36"/>
<path d="M191.75 99V91.75L199 99H191.75Z" fill="#212B36"/>
<path d="M199 99V91.75L206.25 99H199Z" fill="#212B36"/>
<path d="M206.25 99V91.75L213.5 99H206.25Z" fill="#212B36"/>
<path d="M213.5 99V91.75L220.75 99H213.5Z" fill="#212B36"/>
<path d="M220.75 99V91.75L228 99H220.75Z" fill="#212B36"/>
<path d="M170 91.75V84.5L177.25 91.75H170Z" fill="#212B36"/>
<path d="M177.25 91.75V84.5L184.5 91.75H177.25Z" fill="#212B36"/>
<path d="M184.5 91.75V84.5L191.75 91.75H184.5Z" fill="#212B36"/>
<path d="M191.75 91.75V84.5L199 91.75H191.75Z" fill="#212B36"/>
<path d="M199 91.75V84.5L206.25 91.75H199Z" fill="#212B36"/>
<path d="M206.25 91.75V84.5L213.5 91.75H206.25Z" fill="#212B36"/>
<path d="M213.5 91.75V84.5L220.75 91.75H213.5Z" fill="#212B36"/>
<path d="M220.75 91.75V84.5L228 91.75H220.75Z" fill="#212B36"/>
<path d="M170 84.5V77.25L177.25 84.5H170Z" fill="#212B36"/>
<path d="M177.25 84.5V77.25L184.5 84.5H177.25Z" fill="#212B36"/>
<path d="M184.5 84.5V77.25L191.75 84.5H184.5Z" fill="#212B36"/>
<path d="M191.75 84.5V77.25L199 84.5H191.75Z" fill="#212B36"/>
<path d="M199 84.5V77.25L206.25 84.5H199Z" fill="#212B36"/>
<path d="M206.25 84.5V77.25L213.5 84.5H206.25Z" fill="#212B36"/>
<path d="M213.5 84.5V77.25L220.75 84.5H213.5Z" fill="#212B36"/>
<path d="M220.75 84.5V77.25L228 84.5H220.75Z" fill="#212B36"/>
<path d="M170 77.25V70L177.25 77.25H170Z" fill="#212B36"/>
<path d="M177.25 77.25V70L184.5 77.25H177.25Z" fill="#212B36"/>
<path d="M184.5 77.25V70L191.75 77.25H184.5Z" fill="#212B36"/>
<path d="M191.75 77.25V70L199 77.25H191.75Z" fill="#212B36"/>
<path d="M199 77.25V70L206.25 77.25H199Z" fill="#212B36"/>
<path d="M206.25 77.25V70L213.5 77.25H206.25Z" fill="#212B36"/>
<path d="M213.5 77.25V70L220.75 77.25H213.5Z" fill="#212B36"/>
<path d="M220.75 77.25V70L228 77.25H220.75Z" fill="#212B36"/>
</g>
</svg>
