<svg width="340" height="140" viewBox="0 0 340 140" fill="none" xmlns="http://www.w3.org/2000/svg">
<g opacity="0.8">
<rect width="340" height="140" transform="matrix(-1 0 0 -1 340 140)" fill="#3366FF"/>
<rect x="170" y="70" width="58" height="58" fill="#3366FF"/>
<path d="M199 70C199 86.0163 186.016 99 170 99V70H199Z" fill="#3366FF"/>
<path d="M199 128C199 111.984 186.016 99 170 99V128H199Z" fill="#212B36"/>
<path d="M199 70C199 86.0163 211.984 99 228 99V70H199Z" fill="#212B36"/>
<path d="M199 128C199 111.984 211.984 99 228 99V128H199Z" fill="#E6EBFB"/>
<rect width="58" height="58" transform="matrix(0 1 1 0 112 70)" fill="#3366FF"/>
<path d="M112 70C112 77.6167 113.5 85.1588 116.415 92.1956C119.33 99.2325 123.602 105.626 128.988 111.012C134.374 116.398 140.767 120.67 147.804 123.585C154.841 126.5 162.383 128 170 128L170 70H112Z" fill="#1939B7"/>
<rect width="58" height="58" transform="matrix(-1 0 0 1 228 12)" fill="#3366FF"/>
<path d="M199 70C199 53.9837 186.016 41 170 41V70H199Z" fill="#E6EBFB"/>
<path d="M199 70C199 53.9837 211.984 41 228 41V70H199Z" fill="#1939B7"/>
<rect width="58" height="58" transform="matrix(0 -1 -1 0 170 70)" fill="#3366FF"/>
<path d="M112 70V62.75L119.25 70H112Z" fill="#212B36"/>
<path d="M119.25 70V62.75L126.5 70H119.25Z" fill="#212B36"/>
<path d="M126.5 70V62.75L133.75 70H126.5Z" fill="#212B36"/>
<path d="M133.75 70V62.75L141 70H133.75Z" fill="#212B36"/>
<path d="M141 70V62.75L148.25 70H141Z" fill="#212B36"/>
<path d="M148.25 70V62.75L155.5 70H148.25Z" fill="#212B36"/>
<path d="M155.5 70V62.75L162.75 70H155.5Z" fill="#212B36"/>
<path d="M162.75 70V62.75L170 70H162.75Z" fill="#212B36"/>
<path d="M112 62.75V55.5L119.25 62.75H112Z" fill="#212B36"/>
<path d="M119.25 62.75V55.5L126.5 62.75H119.25Z" fill="#212B36"/>
<path d="M126.5 62.75V55.5L133.75 62.75H126.5Z" fill="#212B36"/>
<path d="M133.75 62.75V55.5L141 62.75H133.75Z" fill="#212B36"/>
<path d="M141 62.75V55.5L148.25 62.75H141Z" fill="#212B36"/>
<path d="M148.25 62.75V55.5L155.5 62.75H148.25Z" fill="#212B36"/>
<path d="M155.5 62.75V55.5L162.75 62.75H155.5Z" fill="#212B36"/>
<path d="M112 55.5V48.25L119.25 55.5H112Z" fill="#212B36"/>
<path d="M119.25 55.5V48.25L126.5 55.5H119.25Z" fill="#212B36"/>
<path d="M126.5 55.5V48.25L133.75 55.5H126.5Z" fill="#212B36"/>
<path d="M133.75 55.5V48.25L141 55.5H133.75Z" fill="#212B36"/>
<path d="M141 55.5V48.25L148.25 55.5H141Z" fill="#212B36"/>
<path d="M148.25 55.5V48.25L155.5 55.5H148.25Z" fill="#212B36"/>
<path d="M112 48.25V41L119.25 48.25H112Z" fill="#212B36"/>
<path d="M119.25 48.25V41L126.5 48.25H119.25Z" fill="#212B36"/>
<path d="M126.5 48.25V41L133.75 48.25H126.5Z" fill="#212B36"/>
<path d="M133.75 48.25V41L141 48.25H133.75Z" fill="#212B36"/>
<path d="M141 48.25V41L148.25 48.25H141Z" fill="#212B36"/>
<path d="M112 41V33.75L119.25 41H112Z" fill="#212B36"/>
<path d="M119.25 41V33.75L126.5 41H119.25Z" fill="#212B36"/>
<path d="M126.5 41V33.75L133.75 41H126.5Z" fill="#212B36"/>
<path d="M133.75 41V33.75L141 41H133.75Z" fill="#212B36"/>
<path d="M112 33.75V26.5L119.25 33.75H112Z" fill="#212B36"/>
<path d="M119.25 33.75V26.5L126.5 33.75H119.25Z" fill="#212B36"/>
<path d="M126.5 33.75V26.5L133.75 33.75H126.5Z" fill="#212B36"/>
<path d="M112 26.5V19.25L119.25 26.5H112Z" fill="#212B36"/>
<path d="M119.25 26.5V19.25L126.5 26.5H119.25Z" fill="#212B36"/>
<path d="M112 19.25V12L119.25 19.25H112Z" fill="#212B36"/>
</g>
</svg>
