<svg width="340" height="140" viewBox="0 0 340 140" fill="none" xmlns="http://www.w3.org/2000/svg">
<g opacity="0.8">
<rect width="340" height="140" fill="#36B37E"/>
<rect width="58" height="58" transform="matrix(0 -1 -1 0 170 70)" fill="#36B37E"/>
<path d="M112 70V12L170 70H112Z" fill="#212B36"/>
<rect width="58" height="58" transform="matrix(0 1 1 0 170 12)" fill="#36B37E"/>
<path d="M170 12C170 19.6167 171.5 27.1588 174.415 34.1956C177.33 41.2325 181.602 47.6264 186.988 53.0122C192.374 58.398 198.767 62.6702 205.804 65.585C212.841 68.4998 220.383 70 228 70L228 12H170Z" fill="#DDF6E2"/>
<rect width="58" height="58" transform="matrix(-1 0 0 1 170 70)" fill="#36B37E"/>
<path d="M170 99C170 115.016 157.016 128 141 128V70C157.016 70 170 82.9837 170 99Z" fill="#136C40"/>
<path d="M112 99C112 115.016 124.984 128 141 128V70C124.984 70 112 82.9837 112 99Z" fill="#DDF6E2"/>
<rect width="58" height="58" transform="matrix(0 -1 -1 0 228 128)" fill="#36B37E"/>
<path d="M170 128V120.75L177.25 128H170Z" fill="#212B36"/>
<path d="M177.25 128V120.75L184.5 128H177.25Z" fill="#212B36"/>
<path d="M184.5 128V120.75L191.75 128H184.5Z" fill="#212B36"/>
<path d="M191.75 128V120.75L199 128H191.75Z" fill="#212B36"/>
<path d="M199 128V120.75L206.25 128H199Z" fill="#212B36"/>
<path d="M206.25 128V120.75L213.5 128H206.25Z" fill="#212B36"/>
<path d="M213.5 128V120.75L220.75 128H213.5Z" fill="#212B36"/>
<path d="M220.75 128V120.75L228 128H220.75Z" fill="#212B36"/>
<path d="M170 120.75V113.5L177.25 120.75H170Z" fill="#212B36"/>
<path d="M177.25 120.75V113.5L184.5 120.75H177.25Z" fill="#212B36"/>
<path d="M184.5 120.75V113.5L191.75 120.75H184.5Z" fill="#212B36"/>
<path d="M191.75 120.75V113.5L199 120.75H191.75Z" fill="#212B36"/>
<path d="M199 120.75V113.5L206.25 120.75H199Z" fill="#212B36"/>
<path d="M206.25 120.75V113.5L213.5 120.75H206.25Z" fill="#212B36"/>
<path d="M213.5 120.75V113.5L220.75 120.75H213.5Z" fill="#212B36"/>
<path d="M170 113.5V106.25L177.25 113.5H170Z" fill="#212B36"/>
<path d="M177.25 113.5V106.25L184.5 113.5H177.25Z" fill="#212B36"/>
<path d="M184.5 113.5V106.25L191.75 113.5H184.5Z" fill="#212B36"/>
<path d="M191.75 113.5V106.25L199 113.5H191.75Z" fill="#212B36"/>
<path d="M199 113.5V106.25L206.25 113.5H199Z" fill="#212B36"/>
<path d="M206.25 113.5V106.25L213.5 113.5H206.25Z" fill="#212B36"/>
<path d="M170 106.25V99L177.25 106.25H170Z" fill="#212B36"/>
<path d="M177.25 106.25V99L184.5 106.25H177.25Z" fill="#212B36"/>
<path d="M184.5 106.25V99L191.75 106.25H184.5Z" fill="#212B36"/>
<path d="M191.75 106.25V99L199 106.25H191.75Z" fill="#212B36"/>
<path d="M199 106.25V99L206.25 106.25H199Z" fill="#212B36"/>
<path d="M170 99V91.75L177.25 99H170Z" fill="#212B36"/>
<path d="M177.25 99V91.75L184.5 99H177.25Z" fill="#212B36"/>
<path d="M184.5 99V91.75L191.75 99H184.5Z" fill="#212B36"/>
<path d="M191.75 99V91.75L199 99H191.75Z" fill="#212B36"/>
<path d="M170 91.75V84.5L177.25 91.75H170Z" fill="#212B36"/>
<path d="M177.25 91.75V84.5L184.5 91.75H177.25Z" fill="#212B36"/>
<path d="M184.5 91.75V84.5L191.75 91.75H184.5Z" fill="#212B36"/>
<path d="M170 84.5V77.25L177.25 84.5H170Z" fill="#212B36"/>
<path d="M177.25 84.5V77.25L184.5 84.5H177.25Z" fill="#212B36"/>
<path d="M170 77.25V70L177.25 77.25H170Z" fill="#212B36"/>
</g>
</svg>
