<svg width="340" height="140" viewBox="0 0 340 140" fill="none" xmlns="http://www.w3.org/2000/svg">
<g opacity="0.8">
<rect width="340" height="140" transform="matrix(1 0 0 -1 0 140)" fill="#93328E"/>
<rect width="58" height="58" transform="matrix(0 1 1 0 112 70)" fill="#93328E"/>
<path d="M112 99C128.016 99 141 111.984 141 128H112V99Z" fill="#E9D6E8"/>
<path d="M170 99C153.984 99 141 111.984 141 128H170V99Z" fill="#762872"/>
<path d="M112 99C128.016 99 141 86.0163 141 70H112V99Z" fill="#E9D6E8"/>
<path d="M170 99C153.984 99 141 86.0163 141 70H170V99Z" fill="#762872"/>
<rect x="228" y="70" width="58" height="58" transform="rotate(90 228 70)" fill="#93328E"/>
<path d="M228 128C228 120.383 226.5 112.841 223.585 105.804C220.67 98.7675 216.398 92.3736 211.012 86.9878C205.626 81.602 199.233 77.3298 192.196 74.415C185.159 71.5002 177.617 70 170 70L170 128H228Z" fill="#212B36"/>
<path d="M199 128C199 124.192 198.25 120.421 196.793 116.902C195.335 113.384 193.199 110.187 190.506 107.494C187.813 104.801 184.616 102.665 181.098 101.207C177.579 99.7501 173.808 99 170 99L170 128H199Z" fill="#93328E"/>
<rect x="170" y="12" width="58" height="58" transform="rotate(90 170 12)" fill="#93328E"/>
<path d="M112 12V19.25L119.25 12H112Z" fill="#212B36"/>
<path d="M119.25 12V19.25L126.5 12H119.25Z" fill="#212B36"/>
<path d="M126.5 12V19.25L133.75 12H126.5Z" fill="#212B36"/>
<path d="M133.75 12V19.25L141 12H133.75Z" fill="#212B36"/>
<path d="M141 12V19.25L148.25 12H141Z" fill="#212B36"/>
<path d="M148.25 12V19.25L155.5 12H148.25Z" fill="#212B36"/>
<path d="M155.5 12V19.25L162.75 12H155.5Z" fill="#212B36"/>
<path d="M162.75 12V19.25L170 12H162.75Z" fill="#212B36"/>
<path d="M112 19.25V26.5L119.25 19.25H112Z" fill="#212B36"/>
<path d="M119.25 19.25V26.5L126.5 19.25H119.25Z" fill="#212B36"/>
<path d="M126.5 19.25V26.5L133.75 19.25H126.5Z" fill="#212B36"/>
<path d="M133.75 19.25V26.5L141 19.25H133.75Z" fill="#212B36"/>
<path d="M141 19.25V26.5L148.25 19.25H141Z" fill="#212B36"/>
<path d="M148.25 19.25V26.5L155.5 19.25H148.25Z" fill="#212B36"/>
<path d="M155.5 19.25V26.5L162.75 19.25H155.5Z" fill="#212B36"/>
<path d="M162.75 19.25V26.5L170 19.25H162.75Z" fill="#212B36"/>
<path d="M112 26.5V33.75L119.25 26.5H112Z" fill="#212B36"/>
<path d="M119.25 26.5V33.75L126.5 26.5H119.25Z" fill="#212B36"/>
<path d="M126.5 26.5V33.75L133.75 26.5H126.5Z" fill="#212B36"/>
<path d="M133.75 26.5V33.75L141 26.5H133.75Z" fill="#212B36"/>
<path d="M141 26.5V33.75L148.25 26.5H141Z" fill="#212B36"/>
<path d="M148.25 26.5V33.75L155.5 26.5H148.25Z" fill="#212B36"/>
<path d="M155.5 26.5V33.75L162.75 26.5H155.5Z" fill="#212B36"/>
<path d="M162.75 26.5V33.75L170 26.5H162.75Z" fill="#212B36"/>
<path d="M112 33.75V41L119.25 33.75H112Z" fill="#212B36"/>
<path d="M119.25 33.75V41L126.5 33.75H119.25Z" fill="#212B36"/>
<path d="M126.5 33.75V41L133.75 33.75H126.5Z" fill="#212B36"/>
<path d="M133.75 33.75V41L141 33.75H133.75Z" fill="#212B36"/>
<path d="M141 33.75V41L148.25 33.75H141Z" fill="#212B36"/>
<path d="M148.25 33.75V41L155.5 33.75H148.25Z" fill="#212B36"/>
<path d="M155.5 33.75V41L162.75 33.75H155.5Z" fill="#212B36"/>
<path d="M162.75 33.75V41L170 33.75H162.75Z" fill="#212B36"/>
<path d="M112 41V48.25L119.25 41H112Z" fill="#212B36"/>
<path d="M119.25 41V48.25L126.5 41H119.25Z" fill="#212B36"/>
<path d="M126.5 41V48.25L133.75 41H126.5Z" fill="#212B36"/>
<path d="M133.75 41V48.25L141 41H133.75Z" fill="#212B36"/>
<path d="M141 41V48.25L148.25 41H141Z" fill="#212B36"/>
<path d="M148.25 41V48.25L155.5 41H148.25Z" fill="#212B36"/>
<path d="M155.5 41V48.25L162.75 41H155.5Z" fill="#212B36"/>
<path d="M162.75 41V48.25L170 41H162.75Z" fill="#212B36"/>
<path d="M112 48.25V55.5L119.25 48.25H112Z" fill="#212B36"/>
<path d="M119.25 48.25V55.5L126.5 48.25H119.25Z" fill="#212B36"/>
<path d="M126.5 48.25V55.5L133.75 48.25H126.5Z" fill="#212B36"/>
<path d="M133.75 48.25V55.5L141 48.25H133.75Z" fill="#212B36"/>
<path d="M141 48.25V55.5L148.25 48.25H141Z" fill="#212B36"/>
<path d="M148.25 48.25V55.5L155.5 48.25H148.25Z" fill="#212B36"/>
<path d="M155.5 48.25V55.5L162.75 48.25H155.5Z" fill="#212B36"/>
<path d="M162.75 48.25V55.5L170 48.25H162.75Z" fill="#212B36"/>
<path d="M112 55.5V62.75L119.25 55.5H112Z" fill="#212B36"/>
<path d="M119.25 55.5V62.75L126.5 55.5H119.25Z" fill="#212B36"/>
<path d="M126.5 55.5V62.75L133.75 55.5H126.5Z" fill="#212B36"/>
<path d="M133.75 55.5V62.75L141 55.5H133.75Z" fill="#212B36"/>
<path d="M141 55.5V62.75L148.25 55.5H141Z" fill="#212B36"/>
<path d="M148.25 55.5V62.75L155.5 55.5H148.25Z" fill="#212B36"/>
<path d="M155.5 55.5V62.75L162.75 55.5H155.5Z" fill="#212B36"/>
<path d="M162.75 55.5V62.75L170 55.5H162.75Z" fill="#212B36"/>
<path d="M112 62.75V70L119.25 62.75H112Z" fill="#212B36"/>
<path d="M119.25 62.75V70L126.5 62.75H119.25Z" fill="#212B36"/>
<path d="M126.5 62.75V70L133.75 62.75H126.5Z" fill="#212B36"/>
<path d="M133.75 62.75V70L141 62.75H133.75Z" fill="#212B36"/>
<path d="M141 62.75V70L148.25 62.75H141Z" fill="#212B36"/>
<path d="M148.25 62.75V70L155.5 62.75H148.25Z" fill="#212B36"/>
<path d="M155.5 62.75V70L162.75 62.75H155.5Z" fill="#212B36"/>
<path d="M162.75 62.75V70L170 62.75H162.75Z" fill="#212B36"/>
<rect x="228" y="70" width="58" height="58" transform="rotate(-180 228 70)" fill="#93328E"/>
<path d="M228 41C228 24.9837 215.016 12 199 12V70C215.016 70 228 57.0163 228 41Z" fill="#762872"/>
<path d="M170 41C170 24.9837 182.984 12 199 12V70C182.984 70 170 57.0163 170 41Z" fill="#E9D6E8"/>
</g>
</svg>
