<svg width="80" height="80" viewBox="0 0 80 80" fill="none" xmlns="http://www.w3.org/2000/svg">
<path d="M39.9999 44.5142C40.5985 44.5142 41.1726 44.2764 41.5959 43.8531C42.0192 43.4298 42.257 42.8557 42.257 42.2571V28.7144C42.257 28.1158 42.0192 27.5417 41.5959 27.1184C41.1726 26.6951 40.5985 26.4573 39.9999 26.4573C39.4012 26.4573 38.8271 26.6951 38.4038 27.1184C37.9805 27.5417 37.7427 28.1158 37.7427 28.7144V42.2571C37.7427 42.8557 37.9805 43.4298 38.4038 43.8531C38.8271 44.2764 39.4012 44.5142 39.9999 44.5142ZM39.9999 53.5427C40.5579 53.5427 41.1034 53.3772 41.5673 53.0672C42.0313 52.7571 42.3929 52.3165 42.6065 51.801C42.82 51.2854 42.8759 50.7181 42.767 50.1708C42.6582 49.6235 42.3895 49.1208 41.9949 48.7262C41.6003 48.3317 41.0976 48.0629 40.5503 47.9541C40.003 47.8452 39.4357 47.9011 38.9202 48.1146C38.4046 48.3282 37.964 48.6898 37.654 49.1538C37.3439 49.6178 37.1785 50.1632 37.1785 50.7213C37.1785 51.4695 37.4757 52.1872 38.0048 52.7163C38.5339 53.2454 39.2516 53.5427 39.9999 53.5427Z" fill="#FFAB00"/>
<circle opacity="0.3" cx="40" cy="40" r="39" stroke="#FFAB00" stroke-width="2"/>
</svg>
