<svg width="24" height="24" viewBox="0 0 24 24" fill="none" xmlns="http://www.w3.org/2000/svg">
<path d="M9 12C8.99938 12.3831 9.06726 12.7627 9.19976 13.1169C9.33227 13.4711 9.52679 13.793 9.77221 14.0643L14.0934 18.8285C14.193 18.9383 14.3281 19 14.4689 19C14.6098 19 14.7449 18.9383 14.8445 18.8285C14.944 18.7187 15 18.5698 15 18.4145C15 18.2592 14.944 18.1103 14.8445 18.0005L10.5233 13.2362C10.2261 12.9082 10.0592 12.4636 10.0592 12C10.0592 11.5364 10.2261 11.0918 10.5233 10.7638L14.8445 5.99955C14.944 5.88974 15 5.74081 15 5.58552C15 5.43023 14.944 5.2813 14.8445 5.1715C14.7449 5.06169 14.6098 5 14.4689 5C14.3281 5 14.193 5.06169 14.0934 5.1715L9.77221 9.9357C9.52679 10.207 9.33227 10.5289 9.19976 10.8831C9.06726 11.2373 8.99938 11.6169 9 12Z" fill="#919EAB"/>
</svg>
