<svg width="12" height="8" viewBox="0 0 12 8" fill="none" xmlns="http://www.w3.org/2000/svg">
<path d="M0.915652 1.73678e-05L11.0843 1.78123e-05C11.2652 -0.00120115 11.4422 0.0600292 11.5929 0.175902C11.7436 0.291775 11.8611 0.457039 11.9304 0.650627C11.9997 0.844215 12.0178 1.05735 11.9822 1.26287C11.9466 1.46839 11.8591 1.65697 11.7307 1.80457L6.6418 7.69313C6.47123 7.88968 6.2405 8 6 8C5.7595 8 5.52876 7.88968 5.3582 7.69313L0.269298 1.80457C0.14091 1.65697 0.0533513 1.46839 0.0177841 1.26287C-0.0177832 1.05735 0.00025364 0.844214 0.0695924 0.650626C0.138931 0.457039 0.256432 0.291774 0.407113 0.175901C0.557796 0.0600287 0.734833 -0.00120161 0.915652 1.73678e-05Z" fill="#FFAB00"/>
</svg>
