<svg width="44" height="44" viewBox="0 0 44 44" fill="none" xmlns="http://www.w3.org/2000/svg">
<circle cx="22" cy="22" r="21.4458" stroke="#C4CDD5" stroke-width="1.10834"/>
<path fill-rule="evenodd" clip-rule="evenodd" d="M30.4779 21.2245L24.9779 15.7245C24.8758 15.6223 24.7545 15.5413 24.6211 15.4861C24.4876 15.4308 24.3446 15.4023 24.2002 15.4023C23.9085 15.4023 23.6288 15.5182 23.4225 15.7245C23.3204 15.8266 23.2394 15.9479 23.1841 16.0813C23.1288 16.2147 23.1004 16.3577 23.1004 16.5022C23.1004 16.7939 23.2162 17.0736 23.4225 17.2799L27.0448 20.9022H14.3002C14.0085 20.9022 13.7287 21.0181 13.5224 21.2244C13.3161 21.4307 13.2002 21.7104 13.2002 22.0022C13.2002 22.2939 13.3161 22.5737 13.5224 22.78C13.7287 22.9863 14.0085 23.1022 14.3002 23.1022H27.0448L23.4225 26.7245C23.2162 26.9307 23.1004 27.2105 23.1004 27.5022C23.1004 27.7939 23.2162 28.0736 23.4225 28.2799C23.6288 28.4861 23.9085 28.602 24.2002 28.602C24.4919 28.602 24.7716 28.4861 24.9779 28.2799L30.4779 22.7799C30.5801 22.6778 30.6613 22.5566 30.7166 22.4231C30.7719 22.2897 30.8004 22.1466 30.8004 22.0022C30.8004 21.8577 30.7719 21.7147 30.7166 21.5812C30.6613 21.4478 30.5801 21.3265 30.4779 21.2245Z" fill="#C4CDD5"/>
</svg>
