<svg width="48" height="48" viewBox="0 0 48 48" fill="none" xmlns="http://www.w3.org/2000/svg">
<rect width="48" height="48" rx="24" fill="#F06400"/>
<path fill-rule="evenodd" clip-rule="evenodd" d="M17.668 13.3337V30.0003C17.668 31.6577 19.0106 33.0003 20.668 33.0003H32.0013C32.9733 33.0003 33.9066 32.6137 34.5946 31.927C35.2813 31.239 35.668 30.3057 35.668 29.3337C35.668 29.3337 35.668 20.2417 35.668 17.8857C35.668 17.267 35.4226 16.6737 34.984 16.2363L29.0986 10.351C28.6613 9.91233 28.068 9.66699 27.4493 9.66699C25.8506 9.66699 21.3346 9.66699 21.3346 9.66699C20.3626 9.66699 19.4293 10.0537 18.7413 10.7403C18.0546 11.4283 17.668 12.3617 17.668 13.3337ZM23.3346 27.0003H30.668C31.22 27.0003 31.668 26.5523 31.668 26.0003C31.668 25.4483 31.22 25.0003 30.668 25.0003H23.3346C22.7826 25.0003 22.3346 25.4483 22.3346 26.0003C22.3346 26.5523 22.7826 27.0003 23.3346 27.0003ZM23.3346 22.3337H28.0013C28.5533 22.3337 29.0013 21.8857 29.0013 21.3337C29.0013 20.7817 28.5533 20.3337 28.0013 20.3337H23.3346C22.7826 20.3337 22.3346 20.7817 22.3346 21.3337C22.3346 21.8857 22.7826 22.3337 23.3346 22.3337ZM27.3346 11.4537V16.667C27.3346 17.0203 27.4746 17.3603 27.7253 17.6097C27.9746 17.8603 28.3146 18.0003 28.668 18.0003H33.8813C33.816 17.8563 33.7253 17.7243 33.6106 17.6097C32.4306 16.4297 28.9053 12.9043 27.7253 11.7243C27.6106 11.6097 27.4786 11.519 27.3346 11.4537Z" fill="white"/>
<path fill-rule="evenodd" clip-rule="evenodd" d="M16.334 15H16.0007C15.0287 15 14.0953 15.3867 13.4073 16.0733C12.7207 16.7613 12.334 17.6947 12.334 18.6667V35.3333C12.334 36.9907 13.6767 38.3333 15.334 38.3333H26.6673C27.6393 38.3333 28.5727 37.9467 29.2607 37.26C29.9473 36.572 30.334 35.6387 30.334 34.6667V34.3333H20.6673C18.274 34.3333 16.334 32.3933 16.334 30V15Z" fill="white"/>
</svg>
