<svg width="40" height="41" viewBox="0 0 40 41" fill="none" xmlns="http://www.w3.org/2000/svg">
<rect y="0.333374" width="40" height="40" rx="20" fill="#F06400"/>
<path fill-rule="evenodd" clip-rule="evenodd" d="M14.7222 11.4445V25.3334C14.7222 26.7145 15.8411 27.8334 17.2222 27.8334H26.6666C27.4766 27.8334 28.2544 27.5111 28.8277 26.9389C29.3999 26.3656 29.7222 25.5878 29.7222 24.7778C29.7222 24.7778 29.7222 17.2011 29.7222 15.2378C29.7222 14.7222 29.5177 14.2278 29.1522 13.8634L24.2477 8.95892C23.8833 8.59336 23.3888 8.38892 22.8733 8.38892C21.5411 8.38892 17.7777 8.38892 17.7777 8.38892C16.9677 8.38892 16.1899 8.71114 15.6166 9.28336C15.0444 9.85669 14.7222 10.6345 14.7222 11.4445ZM19.4444 22.8334H25.5555C26.0155 22.8334 26.3888 22.46 26.3888 22C26.3888 21.54 26.0155 21.1667 25.5555 21.1667H19.4444C18.9844 21.1667 18.6111 21.54 18.6111 22C18.6111 22.46 18.9844 22.8334 19.4444 22.8334ZM19.4444 18.9445H23.3333C23.7933 18.9445 24.1666 18.5711 24.1666 18.1111C24.1666 17.6511 23.7933 17.2778 23.3333 17.2778H19.4444C18.9844 17.2778 18.6111 17.6511 18.6111 18.1111C18.6111 18.5711 18.9844 18.9445 19.4444 18.9445ZM22.7777 9.8778V14.2222C22.7777 14.5167 22.8944 14.8 23.1033 15.0078C23.3111 15.2167 23.5944 15.3334 23.8888 15.3334H28.2333C28.1788 15.2134 28.1033 15.1034 28.0077 15.0078C27.0244 14.0245 24.0866 11.0867 23.1033 10.1034C23.0077 10.0078 22.8977 9.93225 22.7777 9.8778Z" fill="white"/>
<path fill-rule="evenodd" clip-rule="evenodd" d="M13.6112 12.8334H13.3334C12.5234 12.8334 11.7456 13.1556 11.1723 13.7278C10.6001 14.3012 10.2778 15.0789 10.2778 15.8889V29.7778C10.2778 31.1589 11.3967 32.2778 12.7778 32.2778H22.2223C23.0323 32.2778 23.8101 31.9556 24.3834 31.3834C24.9556 30.81 25.2778 30.0323 25.2778 29.2223V28.9445H17.2223C15.2278 28.9445 13.6112 27.3278 13.6112 25.3334V12.8334Z" fill="white"/>
</svg>
