<svg width="20" height="14" viewBox="0 0 20 14" fill="none" xmlns="http://www.w3.org/2000/svg">
<path d="M18.5745 0.24522L7.05963 11.7592C6.98221 11.8369 6.89021 11.8986 6.7889 11.9407C6.68759 11.9828 6.57897 12.0044 6.46926 12.0044C6.35956 12.0044 6.25094 11.9828 6.14963 11.9407C6.04832 11.8986 5.95632 11.8369 5.8789 11.7592L1.42595 7.30211C1.34853 7.22438 1.25653 7.16271 1.15522 7.12063C1.05391 7.07855 0.945287 7.05689 0.835585 7.05689C0.725883 7.05689 0.617261 7.07855 0.515951 7.12063C0.414641 7.16271 0.322638 7.22438 0.24522 7.30211C0.167496 7.37953 0.105824 7.47153 0.0637431 7.57284C0.021662 7.67415 0 7.78277 0 7.89247C0 8.00218 0.021662 8.1108 0.0637431 8.21211C0.105824 8.31342 0.167496 8.40542 0.24522 8.48284L4.69983 12.9366C5.16975 13.4057 5.80657 13.6691 6.47051 13.6691C7.13446 13.6691 7.77128 13.4057 8.24119 12.9366L19.7552 1.42512C19.8328 1.34772 19.8944 1.25576 19.9364 1.15453C19.9784 1.0533 20 0.944772 20 0.835169C20 0.725566 19.9784 0.61704 19.9364 0.515807C19.8944 0.414574 19.8328 0.322623 19.7552 0.24522C19.6778 0.167496 19.5858 0.105824 19.4845 0.0637432C19.3832 0.0216622 19.2745 0 19.1648 0C19.0551 0 18.9465 0.0216622 18.8452 0.0637432C18.7439 0.105824 18.6519 0.167496 18.5745 0.24522Z" fill="#36B37E"/>
</svg>
