<svg width="73" height="73" viewBox="0 0 73 73" fill="none" xmlns="http://www.w3.org/2000/svg">
<rect width="72.8" height="72.8" rx="36.4" fill="white"/>
<g clip-path="url(#clip0_3120_42352)">
<path d="M35.5062 27.9201L35.4999 41.8143C35.4999 42.053 35.5947 42.2819 35.7635 42.4507C35.9323 42.6195 36.1612 42.7143 36.3999 42.7143C36.6386 42.7143 36.8675 42.6195 37.0363 42.4507C37.2051 42.2819 37.2999 42.053 37.2999 41.8143L37.3062 27.9354L39.927 30.5571C40.0958 30.7259 40.3246 30.8206 40.5633 30.8206C40.8019 30.8206 41.0308 30.7259 41.1996 30.5571C41.3683 30.3884 41.4631 30.1595 41.4631 29.9208C41.4631 29.6822 41.3683 29.4533 41.1996 29.2845L38.3097 26.391C38.0589 26.1401 37.7612 25.9411 37.4335 25.8053C37.1058 25.6695 36.7546 25.5996 36.3999 25.5996C36.0452 25.5996 35.6939 25.6695 35.3662 25.8053C35.0385 25.9411 34.7408 26.1401 34.4901 26.391L31.6002 29.2818C31.4315 29.4506 31.3367 29.6795 31.3367 29.9181C31.3367 30.1568 31.4315 30.3857 31.6002 30.5544C31.769 30.7232 31.9978 30.8179 32.2365 30.8179C32.4751 30.8179 32.704 30.7232 32.8728 30.5544L35.5062 27.9201Z" fill="#36B37E"/>
<path d="M45.3999 40.898V44.498C45.3999 44.7367 45.305 44.9657 45.1363 45.1344C44.9675 45.3032 44.7385 45.398 44.4999 45.398H28.2999C28.0612 45.398 27.8322 45.3032 27.6635 45.1344C27.4947 44.9657 27.3999 44.7367 27.3999 44.498V40.898C27.3999 40.6594 27.305 40.4304 27.1362 40.2616C26.9675 40.0929 26.7385 39.998 26.4999 39.998C26.2612 39.998 26.0322 40.0929 25.8635 40.2616C25.6947 40.4304 25.5999 40.6594 25.5999 40.898V44.498C25.5999 45.2141 25.8843 45.9009 26.3907 46.4072C26.897 46.9136 27.5838 47.198 28.2999 47.198H44.4999C45.2159 47.198 45.9027 46.9136 46.409 46.4072C46.9154 45.9009 47.1999 45.2141 47.1999 44.498V40.898C47.1999 40.6594 47.105 40.4304 46.9363 40.2616C46.7675 40.0929 46.5385 39.998 46.2999 39.998C46.0612 39.998 45.8322 40.0929 45.6635 40.2616C45.4947 40.4304 45.3999 40.6594 45.3999 40.898Z" fill="#36B37E"/>
</g>
<defs>
<clipPath id="clip0_3120_42352">
<rect width="21.6" height="21.6" fill="white" transform="translate(25.5999 25.5996)"/>
</clipPath>
</defs>
</svg>
