<svg width="24" height="24" viewBox="0 0 24 24" fill="none" xmlns="http://www.w3.org/2000/svg">
<path d="M18 18.6665H6C5.72667 18.6665 5.5 18.4398 5.5 18.1665C5.5 17.8932 5.72667 17.6665 6 17.6665H18C18.2733 17.6665 18.5 17.8932 18.5 18.1665C18.5 18.4398 18.2733 18.6665 18 18.6665Z" fill="#292D32"/>
<path d="M16.68 6.31994C15.3867 5.02661 14.12 4.99328 12.7933 6.31994L11.9867 7.12661C11.92 7.19328 11.8933 7.29994 11.92 7.39328C12.4267 9.15994 13.84 10.5733 15.6067 11.0799C15.6333 11.0866 15.66 11.0933 15.6867 11.0933C15.76 11.0933 15.8267 11.0666 15.88 11.0133L16.68 10.2066C17.34 9.55328 17.66 8.91994 17.66 8.27994C17.6667 7.61994 17.3467 6.97994 16.68 6.31994Z" fill="#292D32"/>
<path d="M14.4067 11.6865C14.2133 11.5932 14.0267 11.4999 13.8467 11.3932C13.7 11.3065 13.56 11.2132 13.42 11.1132C13.3067 11.0399 13.1733 10.9332 13.0467 10.8265C13.0333 10.8199 12.9867 10.7799 12.9333 10.7265C12.7133 10.5399 12.4667 10.2999 12.2467 10.0332C12.2267 10.0199 12.1933 9.9732 12.1467 9.9132C12.08 9.8332 11.9667 9.69987 11.8667 9.54654C11.7867 9.44654 11.6933 9.29987 11.6067 9.1532C11.5 8.9732 11.4067 8.7932 11.3133 8.60654C11.191 8.34431 10.8468 8.26641 10.6422 8.47103L6.89334 12.2199C6.80668 12.3065 6.72668 12.4732 6.70668 12.5865L6.34668 15.1399C6.28001 15.5932 6.40668 16.0199 6.68668 16.3065C6.92668 16.5399 7.26001 16.6665 7.62001 16.6665C7.70001 16.6665 7.78001 16.6599 7.86001 16.6465L10.42 16.2865C10.54 16.2665 10.7067 16.1865 10.7867 16.0999L14.5417 12.3448C14.7422 12.1443 14.6669 11.7993 14.4067 11.6865Z" fill="#292D32"/>
</svg>
