<svg width="48" height="48" viewBox="0 0 48 48" fill="none" xmlns="http://www.w3.org/2000/svg">
<rect width="48" height="48" rx="24" fill="#36B37E"/>
<path d="M23.9999 26.667C17.3199 26.667 11.8799 31.147 11.8799 36.667C11.8799 37.0403 12.1732 37.3337 12.5465 37.3337H35.4532C35.8265 37.3337 36.1199 37.0403 36.1199 36.667C36.1199 31.147 30.6799 26.667 23.9999 26.667Z" fill="white"/>
<path d="M23.9999 10.667C22.4266 10.667 20.9866 11.2137 19.8399 12.1337C18.3066 13.347 17.3333 15.227 17.3333 17.3337C17.3333 18.587 17.6799 19.7603 18.3066 20.7603C19.4533 22.6937 21.5599 24.0003 23.9999 24.0003C25.6799 24.0003 27.2133 23.387 28.3866 22.3337C28.9066 21.8937 29.3599 21.3603 29.7066 20.7603C30.3199 19.7603 30.6666 18.587 30.6666 17.3337C30.6666 13.6537 27.6799 10.667 23.9999 10.667ZM27.4533 16.6137L23.8933 19.8937C23.6533 20.1203 23.3466 20.227 23.0399 20.227C22.7199 20.227 22.3999 20.107 22.1599 19.867L20.5199 18.2137C20.0266 17.7203 20.0266 16.9337 20.5199 16.4403C21.0133 15.947 21.7999 15.947 22.2933 16.4403L23.0799 17.227L25.7599 14.7603C26.2666 14.2937 27.0533 14.3203 27.5199 14.827C27.9866 15.347 27.9599 16.147 27.4533 16.6137Z" fill="white"/>
</svg>
