<svg width="40" height="41" viewBox="0 0 40 41" fill="none" xmlns="http://www.w3.org/2000/svg">
<rect y="0.666687" width="40" height="40" rx="20" fill="#36B37E"/>
<path d="M19.9999 22.8888C14.4332 22.8888 9.8999 26.6221 9.8999 31.2221C9.8999 31.5332 10.1443 31.7777 10.4555 31.7777H29.5443C29.8555 31.7777 30.0999 31.5332 30.0999 31.2221C30.0999 26.6221 25.5666 22.8888 19.9999 22.8888Z" fill="white"/>
<path d="M19.9999 9.55548C18.6888 9.55548 17.4888 10.011 16.5332 10.7777C15.2554 11.7888 14.4443 13.3555 14.4443 15.111C14.4443 16.1555 14.7332 17.1333 15.2554 17.9666C16.211 19.5777 17.9666 20.6666 19.9999 20.6666C21.3999 20.6666 22.6777 20.1555 23.6554 19.2777C24.0888 18.911 24.4666 18.4666 24.7554 17.9666C25.2666 17.1333 25.5554 16.1555 25.5554 15.111C25.5554 12.0444 23.0666 9.55548 19.9999 9.55548ZM22.8777 14.511L19.911 17.2444C19.711 17.4333 19.4554 17.5221 19.1999 17.5221C18.9332 17.5221 18.6666 17.4221 18.4666 17.2221L17.0999 15.8444C16.6888 15.4333 16.6888 14.7777 17.0999 14.3666C17.511 13.9555 18.1666 13.9555 18.5777 14.3666L19.2332 15.0221L21.4666 12.9666C21.8888 12.5777 22.5443 12.5999 22.9332 13.0221C23.3221 13.4555 23.2999 14.1221 22.8777 14.511Z" fill="white"/>
</svg>
