<svg width="48" height="48" viewBox="0 0 48 48" fill="none" xmlns="http://www.w3.org/2000/svg">
<rect width="48" height="48" rx="24" fill="#93328E"/>
<g clip-path="url(#clip0_1750_145361)">
<path d="M16.5938 19.1044C11.8552 19.1044 8 22.9595 8 27.6981C8 29.7601 8.73825 31.7351 10.0861 33.2981L8.25581 36.501C7.97575 36.9911 8.43744 37.5719 8.97806 37.4097L14.0263 35.8952C14.8652 36.1585 15.7282 36.2919 16.5938 36.2919C21.3323 36.2919 25.1875 32.4367 25.1875 27.6981C25.1875 22.9595 21.3323 19.1044 16.5938 19.1044ZM16.5938 33.6356C16.076 33.6356 15.6562 33.2159 15.6562 32.6981C15.6562 32.1804 16.076 31.7606 16.5938 31.7606C17.1115 31.7606 17.5312 32.1804 17.5312 32.6981C17.5312 33.2159 17.1115 33.6356 16.5938 33.6356ZM18.014 27.6261C17.8689 27.7111 17.5312 27.9519 17.5312 28.3508V28.9481C17.5312 29.4659 17.1115 29.8856 16.5938 29.8856C16.076 29.8856 15.6562 29.4659 15.6562 28.9481V28.3508C15.6562 27.4011 16.1834 26.5254 17.0662 26.0082C17.3531 25.8402 17.5312 25.5298 17.5312 25.1982C17.5312 24.6812 17.1107 24.2607 16.5938 24.2607C16.0768 24.2607 15.6562 24.6812 15.6562 25.1982C15.6562 25.7159 15.2365 26.1357 14.7188 26.1357C14.201 26.1357 13.7812 25.7159 13.7812 25.1982C13.7812 23.6474 15.0429 22.3857 16.5938 22.3857C18.1446 22.3857 19.4062 23.6474 19.4062 25.1982C19.4062 26.1926 18.8728 27.1229 18.014 27.6261Z" fill="white"/>
<path d="M37.9146 14.7018L39.7448 11.4989C40.0249 11.0088 39.5632 10.4279 39.0226 10.5901L33.9743 12.1046C33.1354 11.8414 32.2725 11.708 31.4069 11.708C26.9991 11.708 23.3564 15.0438 22.8691 19.3234C25.414 21.2349 27.0631 24.2774 27.0631 27.6981C27.0631 27.7034 27.063 27.7087 27.063 27.714C28.3384 28.4644 29.8231 28.8955 31.4069 28.8955C36.1455 28.8955 40.0006 25.0404 40.0006 20.3018C40.0006 18.2398 39.2624 16.2648 37.9146 14.7018ZM34.5319 23.1142H28.2819C27.7641 23.1142 27.3444 22.6944 27.3444 22.1767C27.3444 21.6589 27.7641 21.2392 28.2819 21.2392H34.5319C35.0496 21.2392 35.4694 21.6589 35.4694 22.1767C35.4694 22.6944 35.0496 23.1142 34.5319 23.1142ZM34.5319 19.3642H28.2819C27.7641 19.3642 27.3444 18.9444 27.3444 18.4267C27.3444 17.9089 27.7641 17.4892 28.2819 17.4892H34.5319C35.0496 17.4892 35.4694 17.9089 35.4694 18.4267C35.4694 18.9444 35.0496 19.3642 34.5319 19.3642Z" fill="white"/>
</g>
<defs>
<clipPath id="clip0_1750_145361">
<rect width="32" height="32" fill="white" transform="translate(8 8)"/>
</clipPath>
</defs>
</svg>
