<svg width="28" height="29" viewBox="0 0 28 29" fill="none" xmlns="http://www.w3.org/2000/svg">
<g clip-path="url(#clip0_1351_68985)">
<path d="M23.3346 21.2982C24.3011 21.2982 25.0846 22.0817 25.0846 23.0482C25.0846 23.9578 24.3906 24.7054 23.5032 24.7902L23.3346 24.7982H4.66797C3.70147 24.7982 2.91797 24.0146 2.91797 23.0482C2.91797 22.1386 3.612 21.391 4.49943 21.3062L4.66797 21.2982H23.3346ZM23.3346 13.1315C24.3011 13.1315 25.0846 13.915 25.0846 14.8815C25.0846 15.848 24.3011 16.6315 23.3346 16.6315H4.66797C3.70147 16.6315 2.91797 15.848 2.91797 14.8815C2.91797 13.915 3.70147 13.1315 4.66797 13.1315H23.3346ZM23.3346 4.96484C24.3011 4.96484 25.0846 5.74834 25.0846 6.71484C25.0846 7.68135 24.3011 8.46484 23.3346 8.46484H4.66797C3.70147 8.46484 2.91797 7.68135 2.91797 6.71484C2.91797 5.74834 3.70147 4.96484 4.66797 4.96484H23.3346Z" fill="#121212"/>
</g>
<defs>
<clipPath id="clip0_1351_68985">
<rect width="28" height="28" fill="white" transform="translate(0 0.881592)"/>
</clipPath>
</defs>
</svg>
