<svg width="24" height="24" viewBox="0 0 24 24" fill="none" xmlns="http://www.w3.org/2000/svg">
<path d="M18.3528 9.88234V7.05881C18.3528 3.5294 15.5293 0.705872 11.9999 0.705872C8.47047 0.705872 5.64694 3.5294 5.64694 7.05881V9.88234C4.44694 9.88234 3.5293 10.8 3.5293 12V21.1765C3.5293 22.3059 4.44694 23.2941 5.64694 23.2941H18.3528C19.5528 23.2941 20.4705 22.3059 20.4705 21.1765V12C20.4705 10.8 19.5528 9.88234 18.3528 9.88234ZM7.05871 7.05881C7.05871 4.30587 9.24694 2.11764 11.9999 2.11764C14.7528 2.11764 16.9411 4.30587 16.9411 7.05881V9.88234H7.05871V7.05881ZM12.7058 17.5059V19.0588C12.7058 19.4823 12.4234 19.7647 11.9999 19.7647C11.5764 19.7647 11.294 19.4823 11.294 19.0588V17.5059C10.4469 17.2235 9.88224 16.447 9.88224 15.5294C9.88224 14.3294 10.7999 13.4118 11.9999 13.4118C13.1999 13.4118 14.1175 14.3294 14.1175 15.5294C14.1175 16.447 13.5528 17.2235 12.7058 17.5059Z" fill="#919EAB"/>
</svg>
