<svg width="18" height="24" viewBox="0 0 18 24" fill="none" xmlns="http://www.w3.org/2000/svg">
<path fill-rule="evenodd" clip-rule="evenodd" d="M3.14982 0H11.1738L17.9744 7.08846V20.8756C17.9744 22.6027 16.5771 24 14.8559 24H3.14982C1.42269 24 0.0253906 22.6027 0.0253906 20.8756V3.12443C0.0253603 1.3973 1.42266 0 3.14982 0Z" fill="#E5252A"/>
<path opacity="0.302" fill-rule="evenodd" clip-rule="evenodd" d="M11.168 0V7.03449H17.9746L11.168 0Z" fill="white"/>
<path d="M3.49805 17.9072V13.5234H5.36312C5.82489 13.5234 6.19072 13.6494 6.46658 13.9072C6.74243 14.1591 6.88038 14.501 6.88038 14.9267C6.88038 15.3525 6.74243 15.6944 6.46658 15.9462C6.19072 16.2041 5.82489 16.33 5.36312 16.33H4.61949V17.9072H3.49805ZM4.61949 15.3765H5.23719C5.40509 15.3765 5.53703 15.3405 5.627 15.2566C5.71694 15.1786 5.76494 15.0707 5.76494 14.9268C5.76494 14.7829 5.71697 14.6749 5.627 14.5969C5.53706 14.513 5.40512 14.477 5.23719 14.477H4.61949V15.3765ZM7.34212 17.9072V13.5234H8.89534C9.20119 13.5234 9.48906 13.5654 9.75891 13.6554C10.0288 13.7453 10.2747 13.8713 10.4905 14.0452C10.7064 14.2131 10.8803 14.441 11.0063 14.7288C11.1262 15.0167 11.1922 15.3465 11.1922 15.7183C11.1922 16.0842 11.1262 16.414 11.0063 16.7018C10.8803 16.9897 10.7064 17.2176 10.4905 17.3855C10.2746 17.5594 10.0288 17.6853 9.75891 17.7753C9.48906 17.8652 9.20119 17.9072 8.89534 17.9072H7.34212ZM8.43957 16.9537H8.7634C8.93731 16.9537 9.09924 16.9358 9.24916 16.8938C9.39308 16.8518 9.53102 16.7858 9.66296 16.6959C9.7889 16.6059 9.89085 16.48 9.96281 16.3121C10.0348 16.1442 10.0708 15.9462 10.0708 15.7183C10.0708 15.4845 10.0348 15.2866 9.96281 15.1187C9.89085 14.9508 9.7889 14.8248 9.66296 14.7348C9.53102 14.6449 9.39311 14.5789 9.24916 14.537C9.09924 14.495 8.93731 14.477 8.7634 14.477H8.43957V16.9537ZM11.7559 17.9072V13.5234H14.8744V14.477H12.8774V15.1786H14.4726V16.1261H12.8774V17.9072H11.7559Z" fill="white"/>
</svg>
