<svg width="48" height="48" viewBox="0 0 48 48" fill="none" xmlns="http://www.w3.org/2000/svg">
<g clip-path="url(#clip0_2616_5787)">
<circle cx="24" cy="24" r="24" fill="#FFF5CC"/>
<path d="M24.7906 33.2831C25.1112 33.3577 25.1405 33.7775 24.8283 33.8816L22.985 34.4882C18.3533 35.9816 15.915 34.7332 14.41 30.1016L12.9167 25.4932C11.4233 20.8616 12.66 18.4116 17.2917 16.9182L18.0723 16.6597C18.4752 16.5263 18.8647 16.9294 18.7459 17.3368C18.662 17.6247 18.5824 17.9285 18.505 18.2482L17.3617 23.1366C16.0783 28.6316 17.9567 31.6649 23.4517 32.9716L24.7906 33.2831Z" fill="#FFAB00"/>
<path d="M30.0316 13.7446L28.0832 13.2896C24.1866 12.3679 21.8649 13.1263 20.4999 15.9496C20.1499 16.6613 19.8699 17.5246 19.6366 18.5163L18.4932 23.4046C17.3499 28.2813 18.8549 30.6846 23.7199 31.8396L25.6799 32.3063C26.3566 32.4696 26.9866 32.5746 27.5699 32.6213C31.2099 32.9713 33.1466 31.2679 34.1266 27.0563L35.2699 22.1796C36.4132 17.3029 34.9199 14.8879 30.0316 13.7446ZM27.8382 25.5513C27.7332 25.9479 27.3832 26.2046 26.9866 26.2046C26.9166 26.2046 26.8466 26.1929 26.7649 26.1813L23.3699 25.3179C22.9032 25.2013 22.6232 24.7229 22.7399 24.2563C22.8566 23.7896 23.3349 23.5096 23.8016 23.6263L27.1966 24.4896C27.6749 24.6063 27.9549 25.0846 27.8382 25.5513ZM31.2566 21.6079C31.1516 22.0046 30.8016 22.2613 30.4049 22.2613C30.3349 22.2613 30.2649 22.2496 30.1832 22.2379L24.5249 20.8029C24.0582 20.6863 23.7782 20.2079 23.8949 19.7413C24.0116 19.2746 24.4899 18.9946 24.9566 19.1113L30.6149 20.5463C31.0932 20.6513 31.3732 21.1296 31.2566 21.6079Z" fill="#FFAB00"/>
</g>
<defs>
<clipPath id="clip0_2616_5787">
<rect width="48" height="48" fill="white"/>
</clipPath>
</defs>
</svg>
