<svg width="48" height="48" viewBox="0 0 48 48" fill="none" xmlns="http://www.w3.org/2000/svg">
<rect width="48" height="48" rx="24" fill="#00AED6"/>
<g clip-path="url(#clip0_1750_145344)">
<path d="M10.875 32.4296L13.8925 40.0001L16.4021 38.4922L13.3846 30.9218L10.875 32.4296Z" fill="white"/>
<path d="M36.7466 28.3916C35.3546 27.8911 33.8079 28.0046 32.5032 28.703L27.5711 31.5799L27.5455 31.6018C27.5422 31.6046 27.5388 31.6072 27.5354 31.6099V31.6137H27.5307C27.1722 31.9128 26.7317 32.0775 26.2879 32.0775H22.3697V30.805H25.7244C26.3494 30.805 26.856 30.2983 26.856 29.6734C26.856 29.0514 26.3541 28.5461 25.7322 28.5418L21.9237 28.5155C21.8457 28.5147 21.7693 28.4996 21.6969 28.471C20.1735 27.8687 18.8569 27.8438 17.7837 28.3969C16.5849 29.0148 15.8187 30.2634 15.3984 31.507L17.48 36.7293H25.3236L36.8627 29.4743C37.4068 29.0545 36.9715 28.4726 36.7466 28.3916Z" fill="white"/>
<path fill-rule="evenodd" clip-rule="evenodd" d="M20.5781 10.9686V22.86C20.5781 24.0425 21.5361 25.0005 22.7186 25.0005H30.8047C31.4982 25.0005 32.1641 24.7246 32.655 24.2347C33.1449 23.7438 33.4208 23.0779 33.4208 22.3844C33.4208 22.3844 33.4208 15.8974 33.4208 14.2164C33.4208 13.775 33.2458 13.3517 32.9328 13.0397L28.7337 8.84056C28.4217 8.52758 27.9984 8.35254 27.5569 8.35254C26.4163 8.35254 23.1942 8.35254 23.1942 8.35254C22.5007 8.35254 21.8348 8.62842 21.3439 9.11834C20.854 9.60922 20.5781 10.2751 20.5781 10.9686ZM24.6212 20.7196H29.8534C30.2473 20.7196 30.5669 20.3999 30.5669 20.0061C30.5669 19.6123 30.2473 19.2926 29.8534 19.2926H24.6212C24.2274 19.2926 23.9077 19.6123 23.9077 20.0061C23.9077 20.3999 24.2274 20.7196 24.6212 20.7196ZM24.6212 17.39H27.9508C28.3446 17.39 28.6643 17.0704 28.6643 16.6765C28.6643 16.2827 28.3446 15.963 27.9508 15.963H24.6212C24.2274 15.963 23.9077 16.2827 23.9077 16.6765C23.9077 17.0704 24.2274 17.39 24.6212 17.39ZM27.4751 9.6273V13.3469C27.4751 13.599 27.575 13.8416 27.7539 14.0195C27.9318 14.1983 28.1743 14.2982 28.4264 14.2982H32.1461C32.0995 14.1955 32.0348 14.1013 31.953 14.0195C31.111 13.1776 28.5958 10.6623 27.7539 9.82041C27.6721 9.7386 27.5779 9.67391 27.4751 9.6273Z" fill="white"/>
</g>
<defs>
<clipPath id="clip0_1750_145344">
<rect width="32" height="32" fill="white" transform="translate(8 8)"/>
</clipPath>
</defs>
</svg>
