<svg width="48" height="48" viewBox="0 0 48 48" fill="none" xmlns="http://www.w3.org/2000/svg">
<rect width="48" height="48" rx="24" fill="#3366FF"/>
<path d="M18.2969 37.5031C18.6929 37.6705 19.0942 37.8258 19.5035 37.9578C19.2969 37.3258 19.2575 37.2571 18.8335 35.9805L18.2969 37.5031Z" fill="white"/>
<path d="M27.3676 37.1197C28.3809 34.5797 29.0876 31.973 29.4942 29.333H21.1809L19.5742 33.893C20.4289 36.6263 20.5302 36.7843 21.0429 38.3583C22.9622 38.765 25.0436 38.7657 26.9516 38.3677C26.9516 38.3683 27.3676 37.1197 27.3676 37.1197Z" fill="white"/>
<path d="M9.33398 24C9.33398 25.3593 9.53065 26.7047 9.89865 28H13.2473L16.8273 26.0933C16.7127 24.06 16.7707 22.0207 16.9933 20H9.89332C9.53132 21.2727 9.33398 22.6133 9.33398 24Z" fill="white"/>
<path d="M9.34081 32.0738C9.36748 32.3405 9.55415 32.5672 9.82081 32.6405C10.7088 32.8952 13.2841 33.6325 14.1281 33.8732C14.3675 34.7152 15.1095 37.3025 15.3608 38.1805C15.5161 38.7898 16.4355 38.8285 16.6275 38.2205C17.8648 34.6972 19.3915 30.3838 20.6275 26.8872C20.7895 26.4718 20.4428 25.9852 20.0008 26.0005C19.7975 25.9438 11.2055 30.6085 9.68748 31.4138C9.44748 31.5405 9.30748 31.8005 9.34081 32.0738Z" fill="white"/>
<path d="M21.6536 28H29.6736C29.9823 25.338 29.9696 22.6573 29.665 20H18.3356C18.131 21.7893 18.0603 23.5927 18.1336 25.3933C18.6616 25.132 19.3856 24.624 20.0003 24.6667C21.3383 24.6367 22.3676 26.0727 21.887 27.3333L21.6536 28Z" fill="white"/>
<path d="M26.9268 9.62738C25.0455 9.23738 22.9528 9.23738 21.0715 9.62804L20.6268 10.8867C19.6255 13.3967 18.9275 16.0114 18.5215 18.6667H29.4855C29.0615 15.59 28.0368 12.566 26.9268 9.62738Z" fill="white"/>
<path d="M37.6595 29.333H30.8541C30.5188 32.213 29.4941 35.3477 28.4941 37.9597C32.7088 36.6077 36.0608 33.4123 37.6595 29.333Z" fill="white"/>
<path d="M10.3418 18.6667H17.1471C17.4825 15.7867 18.5071 12.6514 19.5071 10.04C15.2925 11.392 11.9405 14.5874 10.3418 18.6667Z" fill="white"/>
<path d="M28.4824 10.036C29.5851 12.8413 30.4224 15.7307 30.8411 18.6667H37.6591C36.0591 14.584 32.6818 11.3873 28.4824 10.036Z" fill="white"/>
<path d="M31.0098 20C31.3051 22.6593 31.3218 25.34 31.0278 28H38.1091C38.8491 25.4767 38.8491 22.5233 38.1091 20H31.0098Z" fill="white"/>
</svg>
