<svg width="24" height="24" viewBox="0 0 24 24" fill="none" xmlns="http://www.w3.org/2000/svg">
<path d="M2.08366 11.7066C2.02879 11.7979 2 11.9006 2 12.005C2 12.1094 2.02879 12.2121 2.08366 12.3035C3.14102 13.9384 4.56017 15.3491 6.24842 16.4434L3.52836 18.954C3.40337 19.0694 3.33316 19.2258 3.33316 19.389C3.33316 19.5522 3.40337 19.7087 3.52836 19.824C3.6548 19.9369 3.82381 20 3.9997 20C4.1756 20 4.34461 19.9369 4.47105 19.824L7.42911 17.0938C8.83567 17.7878 10.405 18.1533 11.9999 18.1583C18.3194 18.1583 21.7721 12.5428 21.9161 12.3035C21.9662 12.2202 21.9947 12.1274 21.9993 12.0322C22.004 11.9371 21.9846 11.8423 21.9428 11.7552C21.0123 10.0198 19.6073 8.53852 17.8667 7.45773L20.4667 5.05793C20.5304 5.00117 20.5812 4.93327 20.6161 4.8582C20.6511 4.78313 20.6695 4.70238 20.6702 4.62068C20.671 4.53898 20.6541 4.45795 20.6206 4.38233C20.5871 4.3067 20.5376 4.238 20.475 4.18023C20.4124 4.12245 20.338 4.07676 20.256 4.04582C20.1741 4.01488 20.0863 3.99931 19.9978 4.00002C19.9093 4.00073 19.8218 4.01771 19.7405 4.04996C19.6591 4.08221 19.5855 4.12908 19.524 4.18785L16.6713 6.82332C15.2155 6.17303 13.6172 5.84058 11.9999 5.85171C5.68041 5.85171 2.22766 11.4672 2.08366 11.7066ZM20.5727 11.9743C19.8321 13.0425 16.806 16.9277 11.9999 16.9277C10.7645 16.9223 9.54592 16.6624 8.43313 16.1671L9.68583 15.0109C10.4551 15.5181 11.3943 15.757 12.3364 15.6851C13.2786 15.6132 14.1625 15.2351 14.831 14.6181C15.4995 14.0011 15.9091 13.1852 15.9871 12.3157C16.065 11.4461 15.8062 10.5792 15.2566 9.86921L16.9093 8.3438C18.4467 9.24491 19.708 10.4949 20.5727 11.9743ZM9.33315 12.005C9.33315 11.3522 9.61411 10.7262 10.1142 10.2646C10.6143 9.80302 11.2926 9.5437 11.9999 9.5437C12.4744 9.54584 12.9395 9.6664 13.3459 9.89259L9.71116 13.2474C9.46609 12.8723 9.33548 12.443 9.33315 12.005ZM14.6666 12.005C14.6666 12.6578 14.3856 13.2839 13.8855 13.7454C13.3854 14.207 12.7071 14.4664 11.9999 14.4664C11.5253 14.4642 11.0602 14.3437 10.6539 14.1175L14.2886 10.7627C14.5337 11.1378 14.6643 11.567 14.6666 12.005ZM11.9999 7.08237C13.2575 7.07536 14.5035 7.30395 15.6626 7.75432L14.3139 8.99913C13.5447 8.49191 12.6055 8.25302 11.6633 8.32495C10.7212 8.39688 9.83722 8.77497 9.16875 9.39196C8.50027 10.0089 8.09063 10.8248 8.01269 11.6944C7.93476 12.564 8.19359 13.4309 8.74314 14.1408L7.22244 15.5444C5.72258 14.6073 4.43966 13.4041 3.44836 12.005C4.22504 10.8937 7.23911 7.08237 11.9999 7.08237Z" fill="#919EAB"/>
</svg>
