<svg width="24" height="24" viewBox="0 0 24 24" fill="none" xmlns="http://www.w3.org/2000/svg">
<path fill-rule="evenodd" clip-rule="evenodd" d="M2.42657 13.1907C4.86559 16.2473 8.35547 18 12 18C15.6445 18 19.1344 16.2473 21.5734 13.1907C21.8507 12.8444 22 12.4277 22 12C22 11.5723 21.8507 11.1556 21.5734 10.8093C19.1344 7.75267 15.6445 6 12 6C8.35547 6 4.86559 7.75267 2.42657 10.8093C2.1493 11.1556 2 11.5723 2 12C2 12.4277 2.1493 12.8444 2.42657 13.1907ZM12 16.6667C8.78701 16.6667 5.81041 15.1547 3.61736 12.4093C3.52196 12.2902 3.47059 12.1475 3.47059 12.0003C3.47059 11.8532 3.52196 11.7098 3.61736 11.5907C5.81041 8.84533 8.78701 7.33333 12 7.33333C15.213 7.33333 18.1896 8.84533 20.3826 11.59C20.478 11.7091 20.5294 11.8525 20.5294 11.9997C20.5294 12.1468 20.478 12.2902 20.3826 12.4093C18.1896 15.1547 15.213 16.6667 12 16.6667ZM12 15.3332C7.13965 15.3332 7.13965 8.6665 12 8.6665C16.8051 8.6665 17.0128 15.3332 12 15.3332ZM12 9.99984C9.05433 9.99984 9.05433 13.9998 12 13.9998C14.9457 13.9998 14.9457 9.99984 12 9.99984Z" fill="#919EAB"/>
</svg>
